<svg width="41" height="41" viewBox="0 0 41 41" fill="none" xmlns="http://www.w3.org/2000/svg">
<path fill-rule="evenodd" clip-rule="evenodd" d="M8.13163 4.1222C8.9038 2.18153 11.6833 2.28232 12.3119 4.27424L15.2776 13.6667H25.7223L28.688 4.27424C29.3167 2.28232 32.0961 2.18153 32.87 4.12049L37.0964 14.7429L38.7296 18.8497C38.9883 19.5001 39.0411 20.2143 38.8807 20.8957C38.7203 21.577 38.3544 22.1927 37.8327 22.6593L21.6377 37.1477C21.3245 37.4277 20.9192 37.5825 20.4991 37.5825C20.079 37.5825 19.6737 37.4277 19.3605 37.1477L3.16551 22.6593C2.64407 22.1925 2.27858 21.5767 2.11848 20.8954C1.95838 20.214 2.01139 19.5 2.27034 18.8497L3.90521 14.7429C3.90521 14.7429 7.35947 6.06286 8.13163 4.1222ZM24.6427 17.0833H16.3573L20.5 30.2033L24.6427 17.0833ZM16.9945 30.4459L12.7749 17.0833H6.65051L5.44442 20.1122L16.9928 30.4459H16.9945ZM8.00863 13.6667H11.6952L10.0655 8.50236L8.00863 13.6667ZM24.0055 30.4459L28.225 17.0833H34.3494L35.5555 20.1122L24.0072 30.4459H24.0055ZM32.9913 13.6667H29.3047L30.9345 8.50236L32.9913 13.6667Z" fill="#CCA9F4"/>
</svg>
