<svg width="488" height="602" viewBox="0 0 488 602" fill="none" xmlns="http://www.w3.org/2000/svg">
<g id="Illustration">
<g id="code-right">
<path id="Vector" opacity="0.07" d="M487.933 302.786C479.441 297.834 473.289 297.7 469.478 302.384C465.666 307.001 463.794 314.829 463.794 325.869V385.351C463.794 396.658 462.724 406.025 460.651 413.452C458.578 421.147 455.034 426.633 450.153 429.845C445.405 433.123 438.986 433.993 430.828 432.454C422.871 430.982 412.908 426.834 401.005 419.942L395.322 416.664V369.828L402.409 373.909C410.902 378.86 416.585 379.463 419.461 375.85C422.47 372.37 424.008 365.077 424.008 354.037V301.648C424.008 287.999 425.345 277.227 428.02 269.264C430.694 261.302 435.977 256.284 443.934 254.009C435.977 242.568 430.694 231.394 428.02 220.421C425.345 209.448 424.075 197.137 424.075 183.488V131.098C424.075 120.059 422.537 111.093 419.528 104.067C416.719 97.1759 411.035 91.288 402.476 86.3367L395.388 82.2553V35.4194L401.072 38.6979C412.975 45.5895 422.938 52.8825 430.895 60.6439C439.053 68.4722 445.472 76.8358 450.22 85.6008C455.168 94.4996 458.645 104.001 460.718 114.104C462.791 123.939 463.861 134.578 463.861 145.818V205.3C463.861 216.34 465.733 226.376 469.545 235.342C473.356 244.374 479.508 251.333 488 256.217L487.933 302.786Z" fill="url(#paint0_linear)"/>
<path id="Vector_2" opacity="0.4" d="M461.186 322.858C452.694 317.907 446.542 317.773 442.731 322.457C438.919 327.073 437.047 334.902 437.047 345.941V405.423C437.047 416.731 435.977 426.098 433.904 433.525C431.831 441.219 428.287 446.706 423.406 449.917C418.658 453.196 412.239 454.065 404.081 452.527C396.124 451.055 386.161 446.906 374.258 440.015L368.574 436.736V389.9L375.662 393.982C384.155 398.933 389.838 399.535 392.714 395.922C395.723 392.443 397.261 385.15 397.261 374.11V321.721C397.261 308.071 398.598 297.299 401.273 289.337C403.947 281.375 409.23 276.357 417.187 274.082C409.23 262.64 403.947 251.467 401.273 240.494C398.598 229.521 397.328 217.21 397.328 203.56V151.171C397.328 140.131 395.79 131.165 392.781 124.14C389.972 117.248 384.288 111.36 375.729 106.409L368.641 102.328V55.4919L374.325 58.7705C386.227 65.662 396.191 72.955 404.148 80.7164C412.306 88.5447 418.725 96.9083 423.473 105.673C428.421 114.572 431.898 124.073 433.971 134.176C436.044 144.012 437.114 154.65 437.114 165.891V225.372C437.114 236.412 438.986 246.449 442.798 255.414C446.609 264.447 452.761 271.405 461.253 276.29L461.186 322.858Z" fill="url(#paint1_linear)"/>
</g>
<g id="code-left">
<path id="Vector_3" opacity="0.07" d="M272.285 130.496C280.777 135.448 286.929 135.581 290.74 130.898C294.552 126.281 296.424 118.453 296.424 107.413V47.9313C296.424 36.6238 297.494 27.2566 299.567 19.8297C301.64 12.1353 305.05 6.58188 309.798 3.30336C314.746 0.09176 321.165 -0.778049 329.122 0.693936C337.28 2.23283 347.31 6.44806 359.213 13.3396L364.897 16.6181V63.454L357.809 59.3726C349.317 54.4214 343.499 53.7523 340.49 57.2316C337.682 60.8446 336.21 68.1376 336.21 79.1775V131.567C336.21 145.216 334.873 155.988 332.198 163.951C329.524 171.846 324.241 176.931 316.284 179.206C324.241 190.647 329.524 201.821 332.198 212.794C334.873 223.767 336.144 236.078 336.144 249.727V302.116C336.144 313.156 337.548 322.122 340.423 329.014C343.432 336.039 349.25 341.994 357.742 346.878L364.83 350.96V397.795L359.146 394.517C347.244 387.625 337.213 380.265 329.056 372.437C321.098 364.676 314.679 356.379 309.731 347.48C304.983 338.715 301.573 329.281 299.5 319.111C297.427 309.276 296.357 298.637 296.357 287.397V227.915C296.357 216.875 294.485 206.839 290.674 197.873C286.862 188.84 280.71 181.882 272.218 176.998L272.285 130.496Z" fill="url(#paint2_linear)"/>
<path id="Vector_4" opacity="0.4" d="M245.538 150.569C254.03 155.52 260.182 155.654 263.993 150.97C267.805 146.354 269.677 138.525 269.677 127.485V68.0038C269.677 56.6963 270.747 47.3291 272.82 39.9023C274.893 32.2078 278.303 26.6544 283.051 23.3759C287.999 20.1643 294.418 19.2945 302.375 20.7664C310.533 22.3053 320.563 26.5206 332.466 33.4121L338.15 36.6906V83.5265L331.062 79.4451C322.569 74.4939 316.752 73.8248 313.743 77.3041C310.935 80.9171 309.463 88.2101 309.463 99.25V151.639C309.463 165.289 308.126 176.061 305.451 184.023C302.777 191.918 297.494 197.003 289.537 199.278C297.494 210.719 302.777 221.893 305.451 232.866C308.126 243.839 309.397 256.15 309.397 269.8V322.189C309.397 333.229 310.801 342.194 313.676 349.086C316.685 356.111 322.503 362.066 330.995 366.951L338.083 371.032V417.868L332.399 414.589C320.497 407.698 310.466 400.338 302.309 392.51C294.351 384.748 287.932 376.452 282.984 367.553C278.236 358.788 274.826 349.354 272.753 339.184C270.68 329.348 269.61 318.71 269.61 307.469V247.987C269.61 236.948 267.738 226.911 263.927 217.946C260.115 208.913 253.963 201.954 245.471 197.07L245.538 150.569Z" fill="url(#paint3_linear)"/>
</g>
<g id="app-1">
<path id="Vector_5" opacity="0.15" d="M97.0918 8.18762L211.369 74.2262L211.302 348.082L97.025 282.044L97.0918 8.18762Z" fill="url(#paint4_linear)"/>
<path id="Vector_6" d="M75.6273 50.2731L166.5 102.796V128.021L75.6273 75.4975V50.2731Z" fill="#CCA9F4"/>
<path id="Vector_7" opacity="0.15" d="M111.201 159.735L198.53 210.184V249.393L111.201 198.944V159.735Z" fill="white"/>
<path id="Vector_8" opacity="0.15" d="M111.134 112.297L198.597 162.813V171.913L111.134 121.464V112.297Z" fill="white"/>
<path id="Vector_9" opacity="0.15" d="M111.134 130.095L186.761 173.786V182.886L111.134 139.194V130.095Z" fill="white"/>
<path id="Vector_10" opacity="0.2" d="M97.0919 8.18762L211.369 74.2262V110.959L97.0919 44.9203V8.18762Z" fill="url(#paint5_linear)"/>
<path id="Vector_11" opacity="0.2" d="M125.644 43.2477C125.644 48.8011 122.368 51.4105 118.356 49.1356C114.344 46.7938 111.134 40.4375 111.134 34.8841C111.134 29.3307 114.411 26.7213 118.423 28.9962C122.368 31.338 125.644 37.6943 125.644 43.2477Z" fill="#B0FBBC"/>
</g>
<g id="app-3">
<path id="Vector_12" opacity="0.15" d="M237.514 262.105L351.791 328.144L351.724 602L237.447 535.961L237.514 262.105Z" fill="url(#paint6_linear)"/>
<path id="Vector_13" d="M281.045 341.793L371.918 394.249V419.407L280.978 366.951L281.045 341.793Z" fill="#B480EF"/>
<path id="Vector_14" opacity="0.15" d="M251.623 367.82L339.019 418.336V457.478L251.623 406.962V367.82Z" fill="white"/>
<path id="Vector_15" opacity="0.15" d="M251.489 423.756L338.952 474.272V483.371L251.489 432.922V423.756Z" fill="white"/>
<path id="Vector_16" opacity="0.15" d="M251.489 440.215L327.116 483.907V493.006L251.489 449.315V440.215Z" fill="white"/>
<path id="Vector_17" opacity="0.2" d="M237.514 262.105L351.791 328.144V364.877L237.514 298.838V262.105Z" fill="url(#paint7_linear)"/>
<path id="Vector_18" opacity="0.2" d="M266.066 297.232C266.066 302.785 262.79 305.395 258.778 303.12C254.766 300.778 251.556 294.422 251.556 288.869C251.556 283.315 254.833 280.706 258.845 282.981C262.79 285.255 266.066 291.679 266.066 297.232Z" fill="#B0FBBC"/>
</g>
<g id="app-2">
<path id="Vector_19" opacity="0.3" d="M217.866 314.289L19 185L19.0668 301.789L200.42 419.709L218 449L217.866 314.289Z" fill="url(#paint8_linear)"/>
<path id="Vector_20" opacity="0.15" d="M166.567 295.76L122.97 270.603V279.702L166.567 304.86V295.76Z" fill="white"/>
<path id="Vector_21" opacity="0.15" d="M166.567 314.026L58.643 251.667V260.767L166.634 323.126L166.567 314.026Z" fill="white"/>
<path id="Vector_22" opacity="0.15" d="M166.634 332.292L36.3093 257.02V266.12L166.634 341.392V332.292Z" fill="white"/>
<path id="Vector_23" d="M177.333 311.484C177.333 320.048 182.415 329.883 188.634 333.496C194.852 337.109 199.934 333.095 199.934 324.531C199.934 315.966 194.852 306.131 188.634 302.518C182.348 298.905 177.333 302.919 177.333 311.484Z" fill="#B0FBBC"/>
</g>
<g id="connector">
<path id="Vector_24" opacity="0.15" d="M38.449 112.297L12.1031 97.0421V88.1433L38.449 103.398C40.5887 104.67 43.7315 107.145 46.4062 111.026C49.2815 115.174 51.3544 120.393 51.3544 126.08C51.3544 132.37 49.7496 135.916 46.7405 136.986C43.8652 137.923 40.5219 136.317 38.449 135.113L27.6164 128.824L27.5495 128.757C26.6134 128.221 25.1423 127.686 24.0056 128.021C23.0694 128.288 21.9327 129.292 21.9327 132.771C21.9327 136.25 23.0025 138.392 23.9387 139.663C25.0754 141.269 26.5465 142.406 27.4827 142.874L27.6164 142.941L60.7827 162.077V170.976L27.817 151.907C25.5435 150.703 22.267 148.227 19.4586 144.279C16.3826 139.93 14.2429 134.444 14.2429 128.288C14.2429 122.2 16.3826 119.055 19.3917 118.185C22.2001 117.382 25.4766 118.587 27.7501 119.925L38.5158 126.147C40.0538 127.017 41.2574 127.419 41.9929 127.151C42.5947 126.95 43.6646 126.08 43.6646 121.598C43.6646 118.654 42.7285 116.78 41.7923 115.442C40.7225 113.97 39.3182 112.766 38.449 112.297Z" fill="white"/>
<path id="Vector_25" d="M19.9266 97.9788C19.9266 105.606 15.4464 109.153 9.96328 106.008C4.48013 102.863 0 94.0981 0 86.4706C0 78.843 4.48013 75.2969 9.96328 78.4416C15.4464 81.6532 19.9266 90.4182 19.9266 97.9788Z" fill="#CCA9F4"/>
<path id="Vector_26" d="M72.752 171.578C72.752 179.206 68.2718 182.752 62.7887 179.607C57.3055 176.462 52.8254 167.697 52.8254 160.07C52.8254 152.442 57.3055 148.896 62.7887 152.041C68.2718 155.252 72.752 164.017 72.752 171.578Z" fill="#CCA9F4"/>
</g>
</g>
<defs>
<linearGradient id="paint0_linear" x1="530.002" y1="48.9473" x2="364.935" y2="334.859" gradientUnits="userSpaceOnUse">
<stop stop-color="white"/>
<stop offset="1" stop-color="white" stop-opacity="0"/>
</linearGradient>
<linearGradient id="paint1_linear" x1="503.255" y1="69.0198" x2="338.188" y2="354.931" gradientUnits="userSpaceOnUse">
<stop stop-color="white"/>
<stop offset="1" stop-color="white" stop-opacity="0"/>
</linearGradient>
<linearGradient id="paint2_linear" x1="450.705" y1="1.9296" x2="285.639" y2="287.841" gradientUnits="userSpaceOnUse">
<stop stop-color="white"/>
<stop offset="1" stop-color="white" stop-opacity="0"/>
</linearGradient>
<linearGradient id="paint3_linear" x1="423.958" y1="22.002" x2="258.891" y2="307.913" gradientUnits="userSpaceOnUse">
<stop stop-color="white"/>
<stop offset="1" stop-color="white" stop-opacity="0"/>
</linearGradient>
<linearGradient id="paint4_linear" x1="213.442" y1="75.3993" x2="104.168" y2="264.601" gradientUnits="userSpaceOnUse">
<stop stop-color="white"/>
<stop offset="1" stop-color="white" stop-opacity="0"/>
</linearGradient>
<linearGradient id="paint5_linear" x1="136.301" y1="8.74678" x2="171.118" y2="107.408" gradientUnits="userSpaceOnUse">
<stop stop-color="white"/>
<stop offset="1" stop-color="white" stop-opacity="0"/>
</linearGradient>
<linearGradient id="paint6_linear" x1="353.859" y1="329.334" x2="244.586" y2="518.535" gradientUnits="userSpaceOnUse">
<stop stop-color="white"/>
<stop offset="1" stop-color="white" stop-opacity="0"/>
</linearGradient>
<linearGradient id="paint7_linear" x1="276.718" y1="262.681" x2="311.535" y2="361.342" gradientUnits="userSpaceOnUse">
<stop stop-color="white"/>
<stop offset="1" stop-color="white" stop-opacity="0"/>
</linearGradient>
<linearGradient id="paint8_linear" x1="174.505" y1="267.552" x2="62.7982" y2="345.196" gradientUnits="userSpaceOnUse">
<stop stop-color="white"/>
<stop offset="1" stop-color="white" stop-opacity="0"/>
</linearGradient>
</defs>
</svg>
